<svg width="12" height="12" viewBox="0 0 12 12" fill="none" xmlns="http://www.w3.org/2000/svg">
<path fill-rule="evenodd" clip-rule="evenodd" d="M1.36994 1.48728C0.75 2.29521 0.75 3.46799 0.75 5.81357C0.75 8.15914 0.75 9.33193 1.36994 10.1399C1.52954 10.3478 1.71572 10.534 1.92372 10.6936C2.73164 11.3136 3.90442 11.3136 6.25 11.3136C8.59558 11.3136 9.76836 11.3136 10.5763 10.6936C10.7843 10.534 10.9705 10.3478 11.1301 10.1399C11.75 9.33193 11.75 8.15914 11.75 5.81357C11.75 3.46799 11.75 2.29521 11.1301 1.48728C10.9705 1.27929 10.7843 1.09311 10.5763 0.933508C9.76836 0.313568 8.59558 0.313568 6.25 0.313568C3.90442 0.313568 2.73164 0.313568 1.92372 0.933508C1.71572 1.09311 1.52954 1.27929 1.36994 1.48728ZM9.83205 4.71834C10.1384 4.25881 10.0142 3.63794 9.5547 3.33158C9.09517 3.02523 8.4743 3.14941 8.16795 3.60894L6.88508 5.53325C6.16857 4.73243 4.82643 4.77122 4.18576 5.73222L2.66795 8.00894C2.3616 8.46846 2.48577 9.08933 2.9453 9.39569C3.40483 9.70204 4.0257 9.57786 4.33205 9.11834L5.61492 7.19402C6.33143 7.99483 7.67357 7.95605 8.31424 6.99505L9.83205 4.71834Z"/>
</svg>
