<svg width="15" height="15" viewBox="0 0 15 15" fill="none" xmlns="http://www.w3.org/2000/svg">
<path d="M5.33339 6.05551L7.48038 7.66575C7.89885 7.97961 8.4885 7.91792 8.83296 7.52426L13.2778 2.4444" stroke="#48BB78" stroke-width="2" stroke-linecap="round"/>
<path d="M14 7.5C14 8.85813 13.5746 10.1822 12.7835 11.2861C11.9924 12.3901 10.8754 13.2185 9.58936 13.655C8.3033 14.0916 6.9128 14.1144 5.61315 13.7201C4.3135 13.3259 3.16998 12.5344 2.3432 11.4569C1.51642 10.3795 1.04792 9.07008 1.00348 7.71267C0.959043 6.35527 1.34091 5.01804 2.09545 3.88879C2.84999 2.75955 3.93929 1.89501 5.21037 1.41661C6.48146 0.938209 7.87047 0.869972 9.18232 1.22148" stroke="#48BB78" stroke-width="2" stroke-linecap="round"/>
</svg>
