<svg width="25" height="25" viewBox="0 0 25 25" fill="none" xmlns="http://www.w3.org/2000/svg">
<path d="M3.25 11.8164C3.25 8.04517 3.25 6.15955 4.42157 4.98798C5.59315 3.81641 7.47876 3.81641 11.25 3.81641H13.25C17.0212 3.81641 18.9069 3.81641 20.0784 4.98798C21.25 6.15955 21.25 8.04517 21.25 11.8164V13.8164C21.25 17.5876 21.25 19.4733 20.0784 20.6448C18.9069 21.8164 17.0212 21.8164 13.25 21.8164H11.25C7.47876 21.8164 5.59315 21.8164 4.42157 20.6448C3.25 19.4733 3.25 17.5876 3.25 13.8164V11.8164Z" fill-opacity="0.25"/>
<path d="M12.25 8.81641L12.25 16.8164" stroke="white" stroke-linejoin="round"/>
<path d="M16.25 12.8164L8.25 12.8164" stroke="white" stroke-linejoin="round"/>
</svg>
