<svg width="18" height="18" viewBox="0 0 18 18" fill="none" xmlns="http://www.w3.org/2000/svg">
<path d="M7.5 14.25L6.79289 13.5429L6.08579 14.25L6.79289 14.9571L7.5 14.25ZM9.79289 10.5429L6.79289 13.5429L8.20711 14.9571L11.2071 11.9571L9.79289 10.5429ZM6.79289 14.9571L9.79289 17.9571L11.2071 16.5429L8.20711 13.5429L6.79289 14.9571Z" fill="#CCD2E3"/>
<path d="M4.45337 11.625C3.87551 10.6241 3.64406 9.46056 3.79491 8.31474C3.94576 7.16892 4.47048 6.1049 5.28769 5.28769C6.1049 4.47048 7.16892 3.94576 8.31474 3.79491C9.46055 3.64406 10.6241 3.87551 11.625 4.45337C12.6259 5.03122 13.4081 5.92318 13.8504 6.99091C14.2926 8.05864 14.3702 9.24248 14.0711 10.3588C13.772 11.4751 13.1129 12.4616 12.196 13.1651C11.2791 13.8687 10.1557 14.25 9 14.25" stroke="#CCD2E3" stroke-width="2" stroke-linecap="round"/>
</svg>
