<svg width="13" height="13" viewBox="0 0 13 13" fill="none" xmlns="http://www.w3.org/2000/svg">
<path fill-rule="evenodd" clip-rule="evenodd" d="M13 6.5C13 10.0899 10.0899 13 6.5 13C2.91015 13 0 10.0899 0 6.5C0 2.91015 2.91015 0 6.5 0C10.0899 0 13 2.91015 13 6.5ZM9.45589 8.04189C9.69689 7.5808 9.83317 7.05632 9.83317 6.5C9.83317 4.65905 8.34079 3.16667 6.49984 3.16667C5.94352 3.16667 5.41904 3.30295 4.95795 3.54395L9.45589 8.04189ZM3.54375 4.95818L8.04166 9.45609C7.58058 9.69707 7.05612 9.83333 6.49984 9.83333C4.65889 9.83333 3.1665 8.34095 3.1665 6.5C3.1665 5.94371 3.30277 5.41925 3.54375 4.95818ZM6.49984 1.16667C3.55432 1.16667 1.1665 3.55448 1.1665 6.5C1.1665 9.44552 3.55432 11.8333 6.49984 11.8333C9.44536 11.8333 11.8332 9.44552 11.8332 6.5C11.8332 3.55448 9.44536 1.16667 6.49984 1.16667Z" fill="#ECB22E"/>
</svg>
