<svg width="11" height="11" viewBox="0 0 11 11" fill="none" xmlns="http://www.w3.org/2000/svg">
<path d="M5.49979 3.62511C5.12895 3.62511 4.76643 3.73507 4.45809 3.9411C4.14975 4.14713 3.90943 4.43996 3.76751 4.78257C3.6256 5.12518 3.58847 5.50218 3.66081 5.8659C3.73316 6.22961 3.91174 6.56371 4.17396 6.82593C4.43619 7.08815 4.77028 7.26673 5.13399 7.33908C5.49771 7.41142 5.87471 7.37429 6.21732 7.23238C6.55993 7.09046 6.85276 6.85014 7.05879 6.5418C7.26482 6.23346 7.37479 5.87094 7.37479 5.5001C7.3733 5.00328 7.17528 4.52723 6.82397 4.17592C6.47266 3.82461 5.99661 3.62659 5.49979 3.62511ZM9.54791 5.5001C9.54693 5.6753 9.53409 5.85023 9.50947 6.0237L10.6506 6.91713C10.7003 6.95817 10.7338 7.01555 10.7451 7.07901C10.7564 7.14247 10.7448 7.20787 10.7123 7.26354L9.63275 9.12729C9.59994 9.18246 9.54871 9.2243 9.4881 9.24543C9.42748 9.26656 9.36135 9.26565 9.30135 9.24284L7.95955 8.70377C7.68015 8.91893 7.37439 9.09748 7.04971 9.2351L6.84908 10.6596C6.83785 10.7234 6.80481 10.7814 6.75561 10.8235C6.70641 10.8657 6.64409 10.8894 6.57932 10.8907H4.42026C4.35666 10.8895 4.29536 10.8667 4.24636 10.8262C4.19737 10.7856 4.16357 10.7296 4.15049 10.6674L3.94987 9.24284C3.62429 9.10681 3.31831 8.92797 3.04002 8.71104L1.69823 9.2501C1.63825 9.27293 1.57214 9.27389 1.51152 9.2528C1.45091 9.23171 1.39967 9.18992 1.36682 9.13479L0.287289 7.27128C0.254795 7.21561 0.243154 7.1502 0.254446 7.08674C0.265738 7.02328 0.299227 6.96591 0.34893 6.92487L1.4901 6.03143C1.46576 5.85535 1.45292 5.67786 1.45166 5.5001C1.45264 5.32491 1.46548 5.14997 1.4901 4.97651L0.34893 4.08307C0.299227 4.04203 0.265738 3.98466 0.254446 3.9212C0.243154 3.85774 0.254795 3.79233 0.287289 3.73667L1.36682 1.87292C1.39964 1.81775 1.45086 1.77591 1.51148 1.75478C1.57209 1.73364 1.63822 1.73456 1.69823 1.75737L3.04002 2.29643C3.31942 2.08128 3.62518 1.90272 3.94987 1.76511L4.15049 0.340575C4.16172 0.276767 4.19476 0.218838 4.24396 0.176687C4.29317 0.134537 4.35548 0.110782 4.42026 0.109482H6.57932C6.64291 0.11072 6.70421 0.13348 6.75321 0.174047C6.80221 0.214613 6.836 0.270591 6.84908 0.332841L7.04971 1.75737C7.37569 1.8933 7.68207 2.07215 7.96072 2.28917L9.30135 1.75011C9.36133 1.72728 9.42743 1.72632 9.48805 1.74741C9.54866 1.7685 9.5999 1.81029 9.63275 1.86542L10.7123 3.72917C10.7448 3.78483 10.7564 3.85024 10.7451 3.9137C10.7338 3.97716 10.7003 4.03453 10.6506 4.07557L9.50947 4.96901C9.5338 5.14502 9.54664 5.32243 9.54791 5.5001Z"/>
</svg>
