<svg width="14" height="14" viewBox="0 0 14 14" fill="none" xmlns="http://www.w3.org/2000/svg">
<path d="M13.2568 3.03142C13.2231 2.96577 13.1743 2.90902 13.1144 2.8658C13.0546 2.82257 12.9854 2.79409 12.9125 2.78267C12.8395 2.77124 12.7649 2.77721 12.6948 2.80007C12.6246 2.82293 12.5608 2.86205 12.5086 2.91423L10.7086 4.7154C10.6202 4.80248 10.5011 4.85129 10.3771 4.85129C10.253 4.85129 10.1339 4.80248 10.0456 4.7154L9.26745 3.93611C9.22391 3.89258 9.18938 3.8409 9.16581 3.78402C9.14225 3.72714 9.13012 3.66618 9.13012 3.60461C9.13012 3.54305 9.14225 3.48208 9.16581 3.4252C9.18938 3.36833 9.22391 3.31665 9.26745 3.27312L11.0598 1.48044C11.1136 1.42672 11.1534 1.36074 11.176 1.28818C11.1986 1.21563 11.2032 1.13868 11.1894 1.06395C11.1756 0.98923 11.1439 0.918977 11.0969 0.859244C11.0499 0.799512 10.9892 0.752092 10.9198 0.721067C9.56599 0.115794 7.87614 0.431614 6.81062 1.48923C5.90534 2.38806 5.63552 3.79255 6.07087 5.34265C6.09434 5.42531 6.09448 5.51286 6.07126 5.59559C6.04804 5.67832 6.00238 5.75302 5.93933 5.8114L1.06199 10.266C0.87198 10.4366 0.718719 10.6441 0.611554 10.8759C0.504389 11.1077 0.445566 11.3588 0.438673 11.6141C0.431781 11.8694 0.476963 12.1234 0.571464 12.3606C0.665965 12.5978 0.807804 12.8133 0.988328 12.9939C1.16885 13.1745 1.38428 13.3164 1.62146 13.4111C1.85865 13.5057 2.11262 13.551 2.36788 13.5442C2.62315 13.5374 2.87436 13.4787 3.10619 13.3716C3.33801 13.2646 3.5456 13.1114 3.71628 12.9215L8.21863 8.03327C8.27617 7.97103 8.3496 7.92567 8.43101 7.90208C8.51243 7.87849 8.59873 7.87755 8.68064 7.89938C9.12195 8.0203 9.57717 8.08304 10.0347 8.08601C11.0133 8.08601 11.8719 7.76931 12.4913 7.15905C13.6383 6.02907 13.8132 4.11247 13.2568 3.03142ZM2.41521 12.6007C2.22226 12.6217 2.02753 12.5824 1.85789 12.488C1.68826 12.3937 1.55208 12.2491 1.46815 12.0741C1.38423 11.899 1.35669 11.7023 1.38934 11.511C1.422 11.3196 1.51323 11.1432 1.65045 11.0059C1.78768 10.8686 1.96412 10.7773 2.15544 10.7446C2.34676 10.7119 2.54351 10.7394 2.71856 10.8232C2.8936 10.9071 3.0383 11.0432 3.13268 11.2128C3.22706 11.3824 3.26648 11.5771 3.24548 11.7701C3.22238 11.9824 3.12749 12.1804 2.97651 12.3315C2.82553 12.4825 2.62751 12.5775 2.41521 12.6007Z"/>
</svg>
