<?xml version="1.0" ?>
<svg width="12" height="12" viewBox="0 0 12 12" fill="none" xmlns="http://www.w3.org/2000/svg">
<path d="M6.16289 0.467523C6.11927 0.425799 6.06124 0.402512 6.00088 0.402512C5.94052 0.402512 5.88248 0.425799 5.83887 0.467523L0.445312 5.61996C0.422407 5.64187 0.404184 5.6682 0.391746 5.69736C0.379308 5.72652 0.372913 5.75789 0.372949 5.78959L0.37207 10.6253C0.37207 10.874 0.470842 11.1124 0.646658 11.2882C0.822473 11.4641 1.06093 11.5628 1.30957 11.5628H4.125C4.24932 11.5628 4.36855 11.5134 4.45645 11.4255C4.54436 11.3376 4.59375 11.2184 4.59375 11.0941V7.10971C4.59375 7.04755 4.61844 6.98793 4.6624 6.94398C4.70635 6.90003 4.76596 6.87533 4.82812 6.87533H7.17187C7.23403 6.87533 7.29365 6.90003 7.3376 6.94398C7.38156 6.98793 7.40625 7.04755 7.40625 7.10971V11.0941C7.40625 11.2184 7.45563 11.3376 7.54354 11.4255C7.63145 11.5134 7.75068 11.5628 7.875 11.5628H10.6893C10.9379 11.5628 11.1764 11.4641 11.3522 11.2882C11.528 11.1124 11.6268 10.874 11.6268 10.6253V5.78959C11.6268 5.75789 11.6204 5.72652 11.608 5.69736C11.5955 5.6682 11.5773 5.64187 11.5544 5.61996L6.16289 0.467523Z" fill="white"/>
</svg>
